<?xml version="1.0" encoding="UTF-8" standalone="no"?>
<!-- Generator: Adobe Illustrator 13.0.2, SVG Export Plug-In . SVG Version: 6.00 Build 14948)  -->

<svg
   xmlns:dc="http://purl.org/dc/elements/1.1/"
   xmlns:cc="http://creativecommons.org/ns#"
   xmlns:rdf="http://www.w3.org/1999/02/22-rdf-syntax-ns#"
   xmlns:svg="http://www.w3.org/2000/svg"
   xmlns="http://www.w3.org/2000/svg"
   xmlns:sodipodi="http://sodipodi.sourceforge.net/DTD/sodipodi-0.dtd"
   xmlns:inkscape="http://www.inkscape.org/namespaces/inkscape"
   version="1.1"
   x="0px"
   y="0px"
   width="500"
   height="500"
   viewBox="0 0 500 500.00001"
   xml:space="preserve"
   id="svg3052"
   inkscape:version="0.48.2 r9819"
   sodipodi:docname="emfcamp.svg"><metadata
   id="metadata3077"><rdf:RDF><cc:Work
       rdf:about=""><dc:format>image/svg+xml</dc:format><dc:type
         rdf:resource="http://purl.org/dc/dcmitype/StillImage" /></cc:Work></rdf:RDF></metadata><defs
   id="defs3075" /><sodipodi:namedview
   pagecolor="#ffffff"
   bordercolor="#666666"
   borderopacity="1"
   objecttolerance="10"
   gridtolerance="10"
   guidetolerance="10"
   inkscape:pageopacity="0"
   inkscape:pageshadow="2"
   inkscape:window-width="1920"
   inkscape:window-height="1175"
   id="namedview3073"
   showgrid="false"
   inkscape:zoom="1.4142136"
   inkscape:cx="148.06323"
   inkscape:cy="255.23173"
   inkscape:window-x="-9"
   inkscape:window-y="-9"
   inkscape:window-maximized="1"
   inkscape:current-layer="svg3052" />
<g
   id="Layer_1"
   transform="matrix(5.1783146,0,0,5.1783146,5.6553371,25.49656)">
	<path
   d="M 46.356,0.062 C 44.851,0.294 43.529,1.183 42.773,2.5 L 0.666,75.449 c -0.88,1.532 -0.895,3.44 0,4.985 0.896,1.545 2.56,2.515 4.358,2.513 h 84.215 c 1.801,0.002 3.465,-0.968 4.359,-2.513 0.894,-1.545 0.879,-3.453 0,-4.985 L 51.491,2.5 C 50.456,0.697 48.405,-0.26 46.356,0.062 l 0,0 z"
   id="path3055"
   inkscape:connector-curvature="0"
   style="fill:#fdee1c" />
	<path
   d="M 46.743,2.121 C 45.93,2.248 45.236,2.738 44.845,3.422 l -42.4,73.449 c -0.464,0.809 -0.466,1.846 0,2.649 0.474,0.816 1.348,1.351 2.3,1.351 h 84.801 c 0.951,0 1.826,-0.533 2.3,-1.351 0.467,-0.805 0.465,-1.842 0,-2.649 l -42.4,-73.45 c -0.547,-0.949 -1.6,-1.474 -2.703,-1.3 l 0,0 z m 0.4,8.449 36,63.4 h -72.05 l 36.05,-63.4 0,0 z"
   id="path3057"
   inkscape:connector-curvature="0"
   style="fill:#010101" />
	<path
   d="m 59.307,36.422 -1.588,1.588 c 2.064,1.985 3.359,4.765 3.359,7.864 0,3.091 -1.306,5.869 -3.359,7.866 l 1.625,1.623 c 2.47,-2.402 4.025,-5.738 4.025,-9.454 10e-4,-3.732 -1.568,-7.082 -4.062,-9.487 l 0,0 z"
   id="path3059"
   inkscape:connector-curvature="0"
   style="fill:#010101" />
	<path
   d="m 34.623,36.755 c -2.302,2.377 -3.729,5.594 -3.729,9.155 0,3.555 1.4,6.782 3.692,9.159 l 1.625,-1.626 c -1.878,-1.968 -3.028,-4.64 -3.028,-7.569 0,-2.929 1.15,-5.572 3.028,-7.533 l -1.588,-1.586 0,0 z"
   id="path3061"
   inkscape:connector-curvature="0"
   style="fill:#010101" />
	<path
   d="m 56.278,39.449 -1.364,1.403 c 1.338,1.271 2.179,3.068 2.179,5.058 0,1.981 -0.814,3.788 -2.143,5.06 l 1.257,1.256 c 1.706,-1.61 2.768,-3.893 2.768,-6.425 -0.001,-2.495 -1.032,-4.747 -2.697,-6.352 l 0,0 z"
   id="path3063"
   inkscape:connector-curvature="0"
   style="fill:#010101" />
	<path
   d="m 37.688,39.817 c -1.456,1.574 -2.363,3.67 -2.363,5.983 0,2.361 0.927,4.509 2.437,6.093 l 1.255,-1.257 c -1.138,-1.242 -1.846,-2.903 -1.846,-4.726 0,-1.83 0.695,-3.516 1.846,-4.763 l -1.329,-1.33 0,0 z"
   id="path3065"
   inkscape:connector-curvature="0"
   style="fill:#010101" />
	<path
   d="m 53.399,42.329 -1.552,1.588 c 0.552,0.487 0.923,1.194 0.923,1.993 0,0.791 -0.346,1.508 -0.886,1.995 l 1.553,1.551 c 0.949,-0.883 1.55,-2.143 1.55,-3.546 0,-1.42 -0.615,-2.696 -1.588,-3.581 l 0,0 z"
   id="path3067"
   inkscape:connector-curvature="0"
   style="fill:#010101" />
	<path
   d="m 40.568,42.698 c -0.778,0.857 -1.292,1.969 -1.292,3.213 0,1.235 0.487,2.358 1.255,3.214 l 1.551,-1.552 c -0.37,-0.457 -0.591,-1.03 -0.591,-1.662 0,-0.648 0.238,-1.235 0.628,-1.698 l -1.551,-1.515 0,0 z"
   id="path3069"
   inkscape:connector-curvature="0"
   style="fill:#010101" />
</g>
<g
   id="Layer_2"
   transform="matrix(5.1783146,0,0,5.1783146,5.6553371,25.49656)">
	<path
   id="path608"
   nodetypes="cccccccccccccccccc"
   d="m 45.312,45.675 1.85,3.654 1.805,-3.654 h 2.647 L 48.715,51.236 59.93,71.257 H 34.348 L 45.564,51.041 42.413,45.675 h 2.899 l 0,0 z m 1.85,7.308 -9.159,16.058 h 3.654 l 5.505,-10.547 5.459,10.547 3.655,0.18 -9.114,-16.238 0,0 0,0 z"
   inkscape:connector-curvature="0"
   style="stroke:#000000;stroke-width:0.71429998" />
</g>
</svg>